# xmcd
#
# Track frame offsets:
#	182
#	6577
#	24960
#	44522
#	62930
#	75465
#	86255
#	100967
#	113570
#	127062
#	144912
#	158595
#
# Disc length: 2290 seconds
#
# Revision: 1
# Processed by: cddbd v1.5.1PL0 Copyright (c) Steve Scherf et al.
# Submitted via: EasyCDDAExtractor 7.0.6.1
#
DISCID=9008f00c
DTITLE=Jim Hermel - Jim Hermel Highway To Ride
DYEAR=1900
DGENRE=Country
TTITLE0=Anthem For S.A.
TTITLE1=Turnpike Blues
TTITLE2=Full Circle Round The Moon
TTITLE3=Slow Driver
TTITLE4=Droving Man
TTITLE5=Suitcase Blues
TTITLE6=Rail Road Woman
TTITLE7=Outback Of My Mind
TTITLE8=It All Depends On You
TTITLE9=Big Night In Te Big City
TTITLE10=South Australia Bound
TTITLE11=Good To Be Back Home
EXTD=
EXTT0=
EXTT1=
EXTT2=
EXTT3=
EXTT4=
EXTT5=
EXTT6=
EXTT7=
EXTT8=
EXTT9=
EXTT10=
EXTT11=
PLAYORDER=
